<?xml version="1.0" encoding="iso-8859-1"?>
<!-- Generator: Adobe Illustrator 16.0.0, SVG Export Plug-In . SVG Version: 6.00 Build 0)  -->
<!DOCTYPE svg PUBLIC "-//W3C//DTD SVG 1.1//EN" "http://www.w3.org/Graphics/SVG/1.1/DTD/svg11.dtd">
<svg version="1.1" id="Capa_1" xmlns="http://www.w3.org/2000/svg" xmlns:xlink="http://www.w3.org/1999/xlink" x="0px" y="0px"
	 width="658.863px" height="658.863px" viewBox="0 0 658.863 658.863" style="enable-background:new 0 0 658.863 658.863;"
	 xml:space="preserve">
<g>
	<g>
		<path d="M372.494,379.645h70.977c16.312,0,29.534-13.222,29.534-29.534s-13.222-29.544-29.534-29.544h-70.987
			c-9.41-13.687-25.162-22.706-43.062-22.706c-0.296,0-0.54,0.074-0.826,0.095l-64.678-91.037
			c-9.453-13.306-27.894-16.429-41.189-6.976c-13.295,9.463-16.408,27.893-6.965,41.189l64.742,91.122
			c-2.043,5.589-3.334,11.549-3.334,17.848c0,28.866,23.383,52.24,52.24,52.24C347.321,402.351,363.073,393.332,372.494,379.645z"/>
		<path d="M547.634,564.471c54.252-55.204,87.798-130.839,87.798-214.36c0-169-137-305.989-306-305.989s-306,136.979-306,305.989
			c0,83.532,33.557,159.156,87.808,214.371l-27.682,27.671c-15.264,15.265-15.264,39.992-0.01,55.257
			c7.622,7.633,17.636,11.454,27.628,11.454s19.997-3.821,27.618-11.443l34.499-34.488c45.741,27.248,99.019,43.179,156.139,43.179
			s110.398-15.931,156.16-43.189l34.498,34.499c7.633,7.622,17.625,11.443,27.618,11.443s20.007-3.821,27.629-11.454
			c15.254-15.265,15.254-39.992-0.011-55.257L547.634,564.471z M329.421,530.109c-10.871,0-19.679,8.828-19.679,19.7v26.527
			c-109.593-9.474-197.073-96.954-206.537-206.537h26.528c10.872,0,19.7-8.828,19.7-19.689c0-10.871-8.829-19.688-19.7-19.688
			h-26.528c9.464-109.583,96.944-197.074,206.537-206.527v26.538c0,10.872,8.808,19.679,19.679,19.679
			c10.872,0,19.689-8.807,19.689-19.679v-26.538c109.594,9.453,197.062,96.943,206.537,206.527h-26.538
			c-10.872,0-19.689,8.817-19.689,19.688c0,10.861,8.817,19.689,19.689,19.689h26.538
			c-9.464,109.583-96.933,197.063-206.526,206.537V549.82C349.121,538.938,340.303,530.109,329.421,530.109z"/>
		<path d="M250.939,27.819C227.333,10.417,198.222,0,166.645,0C88.004,0,24.247,63.758,24.247,142.398
			c0,19.33,3.885,37.749,10.872,54.548C78.837,113.277,157.118,50.685,250.939,27.819z"/>
		<path d="M623.734,196.947c6.986-16.81,10.871-35.229,10.871-54.548C634.616,63.758,570.859,0,492.218,0
			c-31.598,0-60.688,10.417-84.293,27.841C501.734,50.695,580.016,113.299,623.734,196.947z"/>
	</g>
</g>
<g>
</g>
<g>
</g>
<g>
</g>
<g>
</g>
<g>
</g>
<g>
</g>
<g>
</g>
<g>
</g>
<g>
</g>
<g>
</g>
<g>
</g>
<g>
</g>
<g>
</g>
<g>
</g>
<g>
</g>
</svg>
